<svg xmlns="http://www.w3.org/2000/svg" viewBox="0 0 512 512" width="512" height="512">
  <defs>
    <linearGradient id="bg" x1="0%" y1="0%" x2="100%" y2="100%">
      <stop offset="0%" style="stop-color:#141929"/>
      <stop offset="100%" style="stop-color:#1e2540"/>
    </linearGradient>
  </defs>
  <!-- Fondo redondeado -->
  <rect width="512" height="512" rx="96" ry="96" fill="url(#bg)"/>
  <!-- Teléfono móvil -->
  <rect x="156" y="96" width="160" height="280" rx="20" ry="20" fill="none" stroke="#4f6ef7" stroke-width="16"/>
  <rect x="172" y="120" width="128" height="196" rx="6" ry="6" fill="#4f6ef7" opacity="0.15"/>
  <circle cx="236" cy="348" r="12" fill="#4f6ef7"/>
  <!-- Llave inglesa -->
  <g transform="translate(270,270) rotate(-35)">
    <rect x="-10" y="-60" width="20" height="110" rx="8" fill="#f59e0b"/>
    <circle cx="0" cy="-60" r="22" fill="none" stroke="#f59e0b" stroke-width="14"/>
    <rect x="-26" y="-72" width="10" height="24" rx="4" fill="#141929"/>
    <rect x="16"  y="-72" width="10" height="24" rx="4" fill="#141929"/>
  </g>
  <!-- Punto de pantalla -->
  <rect x="220" y="136" width="72" height="8" rx="4" fill="#4f6ef7" opacity="0.6"/>
  <rect x="196" y="156" width="120" height="6" rx="3" fill="#4f6ef7" opacity="0.4"/>
  <rect x="196" y="174" width="96"  height="6" rx="3" fill="#4f6ef7" opacity="0.3"/>
</svg>
